<?xml version="1.0" encoding="utf-8"?>
<!-- Generator: Adobe Illustrator 14.0.0, SVG Export Plug-In . SVG Version: 6.00 Build 43363)  -->
<!DOCTYPE svg PUBLIC "-//W3C//DTD SVG 1.1//EN" "http://www.w3.org/Graphics/SVG/1.1/DTD/svg11.dtd">
<svg version="1.1" id="Layer_1" xmlns="http://www.w3.org/2000/svg" xmlns:xlink="http://www.w3.org/1999/xlink" x="0px" y="0px"
	 width="24.708px" height="25.5px" viewBox="0 0 24.708 25.5" enable-background="new 0 0 24.708 25.5" xml:space="preserve">
<path fill="#FFFFFF" d="M14.326,3.75l-3.745-1.973L10.58,3.75H7.293v0.016H7.273v17.36H8.54V4.982h2.039l-0.017,18.094l6.042-1.986
	v-3.135h0.104v3.154h1.269V4.982V3.75H14.326z M12.32,14.098c-0.377,0-0.68-0.418-0.68-0.931c0-0.514,0.303-0.93,0.68-0.93
	c0.378,0,0.68,0.416,0.68,0.93C13,13.679,12.698,14.098,12.32,14.098z M16.709,16.562h-0.104V9.411h0.104V16.562z M16.709,7.955
	h-0.104V4.982h0.104V7.955z"/>
</svg>
