<?xml version="1.0" encoding="utf-8"?>
<!-- Generator: Adobe Illustrator 14.0.0, SVG Export Plug-In . SVG Version: 6.00 Build 43363)  -->
<!DOCTYPE svg PUBLIC "-//W3C//DTD SVG 1.1//EN" "http://www.w3.org/Graphics/SVG/1.1/DTD/svg11.dtd">
<svg version="1.1" id="Layer_1" xmlns="http://www.w3.org/2000/svg" xmlns:xlink="http://www.w3.org/1999/xlink" x="0px" y="0px"
	 width="69px" height="56px" viewBox="0 0 69 56" enable-background="new 0 0 69 56" xml:space="preserve">
<rect x="-1.408" y="-1.211" fill="#8CC63F" width="71.816" height="58.422"/>
<g>
	<path fill="#FFFFFF" d="M32.427,16.277c0-1.043,0.97-1.899,2.109-1.899c1.18,0,2.151,0.856,2.151,1.899s-0.971,1.862-2.151,1.862
		C33.397,18.139,32.427,17.32,32.427,16.277z M32.975,38.699v-17.99h3.164v17.99H32.975z"/>
</g>
<g>
	<path fill="#FFFFFF" d="M34.024,47.355c-11.642,0-21.113-9.243-21.113-20.605c0-11.359,9.471-20.601,21.113-20.601
		c11.639,0,21.109,9.241,21.109,20.601C55.133,38.112,45.663,47.355,34.024,47.355L34.024,47.355z M34.024,8.462
		c-10.367,0-18.801,8.204-18.801,18.288c0,10.086,8.434,18.292,18.801,18.292c10.365,0,18.796-8.206,18.796-18.292
		C52.82,16.667,44.389,8.462,34.024,8.462L34.024,8.462z"/>
</g>
</svg>
