<?xml version="1.0" encoding="utf-8"?>
<!-- Generator: Adobe Illustrator 14.0.0, SVG Export Plug-In . SVG Version: 6.00 Build 43363)  -->
<!DOCTYPE svg PUBLIC "-//W3C//DTD SVG 1.1//EN" "http://www.w3.org/Graphics/SVG/1.1/DTD/svg11.dtd">
<svg version="1.1" id="Layer_1" xmlns="http://www.w3.org/2000/svg" xmlns:xlink="http://www.w3.org/1999/xlink" x="0px" y="0px"
	 width="35px" height="35px" viewBox="0 0 35 35" enable-background="new 0 0 35 35" xml:space="preserve">
<g>
	<g>
		<g>
			<path fill="#FFFFFF" d="M23.004,27.784H12.327c-5.826,0-10.566-4.357-10.566-9.712c0-5.355,4.74-9.713,10.566-9.713h10.677
				c5.826,0,10.566,4.357,10.566,9.713C33.57,23.427,28.83,27.784,23.004,27.784L23.004,27.784z M12.327,12.182
				c-3.72,0-6.745,2.643-6.745,5.891s3.025,5.89,6.745,5.89h10.677c3.72,0,6.746-2.642,6.746-5.89s-3.026-5.891-6.746-5.891H12.327
				L12.327,12.182z"/>
		</g>
		<path fill="#FFFFFF" d="M28.29,18.069c0-2.529-2.052-4.576-4.58-4.576c-2.53,0-4.577,2.047-4.577,4.576
			c0,2.53,2.047,4.578,4.577,4.578C26.238,22.647,28.29,20.6,28.29,18.069z"/>
	</g>
	<g>
		<g>
			<path fill="#288BC9" d="M23.004,27.295H12.327c-5.826,0-10.566-4.357-10.566-9.712c0-5.355,4.74-9.713,10.566-9.713h10.677
				c5.826,0,10.566,4.357,10.566,9.713C33.57,22.938,28.83,27.295,23.004,27.295L23.004,27.295z M12.327,11.692
				c-3.72,0-6.745,2.643-6.745,5.891s3.025,5.89,6.745,5.89h10.677c3.72,0,6.746-2.642,6.746-5.89s-3.026-5.891-6.746-5.891H12.327
				L12.327,11.692z"/>
		</g>
		<path fill="#288BC9" d="M28.29,17.58c0-2.529-2.052-4.576-4.58-4.576c-2.53,0-4.577,2.047-4.577,4.576
			c0,2.53,2.047,4.578,4.577,4.578C26.238,22.158,28.29,20.11,28.29,17.58z"/>
	</g>
</g>
</svg>
