<?xml version="1.0" encoding="utf-8"?>
<!-- Generator: Adobe Illustrator 14.0.0, SVG Export Plug-In . SVG Version: 6.00 Build 43363)  -->
<!DOCTYPE svg PUBLIC "-//W3C//DTD SVG 1.1//EN" "http://www.w3.org/Graphics/SVG/1.1/DTD/svg11.dtd">
<svg version="1.1" id="Layer_1" xmlns="http://www.w3.org/2000/svg" xmlns:xlink="http://www.w3.org/1999/xlink" x="0px" y="0px"
	 width="35px" height="35px" viewBox="0 0 35 35" enable-background="new 0 0 35 35" xml:space="preserve">
<g>
	<g>
		<path fill="#FFFFFF" d="M26.454,31.054c2.056,0,3.687-0.923,4.361-2.469c0.772-1.77,0.157-3.924-1.69-5.914
			c-1.818-1.949-4.672-4.84-5.874-6.051V7.579h2.048V3.756h-14.91v3.822h1.856v9.043c-1.2,1.211-4.051,4.102-5.871,6.053
			c-1.846,1.987-2.462,4.142-1.691,5.91c0.674,1.546,2.305,2.47,4.363,2.47H26.454z M9.047,27.232c-0.581,0-0.834-0.15-0.859-0.171
			c-0.034-0.107,0.036-0.763,0.984-1.784c2.258-2.421,6.298-6.479,6.338-6.52l0.557-0.56V7.579h3.362v10.62l0.558,0.56
			c0.041,0.04,4.084,4.098,6.339,6.516c0.951,1.024,1.019,1.679,0.996,1.768c-0.036,0.04-0.288,0.19-0.868,0.19H9.047z"/>
	</g>
	<g>
		<path fill="#288BC9" d="M26.454,30.426c2.056,0,3.687-0.923,4.361-2.469c0.772-1.77,0.157-3.924-1.69-5.914
			c-1.818-1.949-4.672-4.84-5.874-6.051V6.951h2.048V3.128h-14.91v3.822h1.856v9.043c-1.2,1.211-4.051,4.102-5.871,6.053
			c-1.846,1.987-2.462,4.142-1.691,5.91c0.674,1.546,2.305,2.47,4.363,2.47H26.454z M9.047,26.604c-0.581,0-0.834-0.15-0.859-0.171
			c-0.034-0.107,0.036-0.763,0.984-1.784c2.258-2.421,6.298-6.479,6.338-6.52l0.557-0.56V6.951h3.362v10.62l0.558,0.56
			c0.041,0.04,4.084,4.098,6.339,6.516c0.951,1.024,1.019,1.679,0.996,1.768c-0.036,0.04-0.288,0.19-0.868,0.19H9.047z"/>
	</g>
</g>
</svg>
