<?xml version="1.0" encoding="utf-8"?>
<!-- Generator: Adobe Illustrator 14.0.0, SVG Export Plug-In . SVG Version: 6.00 Build 43363)  -->
<!DOCTYPE svg PUBLIC "-//W3C//DTD SVG 1.1//EN" "http://www.w3.org/Graphics/SVG/1.1/DTD/svg11.dtd">
<svg version="1.1" id="Layer_1" xmlns="http://www.w3.org/2000/svg" xmlns:xlink="http://www.w3.org/1999/xlink" x="0px" y="0px"
	 width="35px" height="35px" viewBox="0 0 35 35" enable-background="new 0 0 35 35" xml:space="preserve">
<g>
	<g>
		<g opacity="0.85">
			<g>
				<path fill="#FFFFFF" d="M19.001,23.769l-6.416-6.662L20.7,8.875l-4.235-4.159l15.26-0.703l-0.43,15.283l-4.019-3.956
					L19.001,23.769L19.001,23.769z M17.316,17.132l1.709,1.776l8.207-8.363l0.895,0.875l0.108-3.851l-3.846,0.173l1.109,1.093
					L17.316,17.132L17.316,17.132z"/>
			</g>
		</g>
		<g opacity="0.85">
			<g>
				<polygon fill="#FFFFFF" points="18.837,31.408 10.73,22.757 4.692,28.859 2.165,26.361 10.799,17.633 18.882,26.258 
					27.151,17.732 29.706,20.208 18.837,31.408 				"/>
			</g>
		</g>
	</g>
	<g>
		<g>
			<path fill="#288BC9" d="M18.977,22.848l-6.417-6.667l8.113-8.229l-4.237-4.156l15.263-0.707l-0.433,15.283l-4.016-3.956
				L18.977,22.848L18.977,22.848z M17.292,16.21L19,17.985l8.209-8.367l0.889,0.876l0.109-3.85l-3.846,0.178l1.111,1.09
				L17.292,16.21L17.292,16.21z"/>
		</g>
		<g>
			<polygon fill="#288BC9" points="18.813,30.485 10.703,21.833 4.667,27.935 2.14,25.435 10.772,16.708 18.856,25.334 
				27.125,16.808 29.677,19.283 18.813,30.485 			"/>
		</g>
	</g>
</g>
</svg>
