<?xml version="1.0" encoding="utf-8"?>
<!-- Generator: Adobe Illustrator 14.0.0, SVG Export Plug-In . SVG Version: 6.00 Build 43363)  -->
<!DOCTYPE svg PUBLIC "-//W3C//DTD SVG 1.1//EN" "http://www.w3.org/Graphics/SVG/1.1/DTD/svg11.dtd">
<svg version="1.1" id="Layer_1" xmlns="http://www.w3.org/2000/svg" xmlns:xlink="http://www.w3.org/1999/xlink" x="0px" y="0px"
	 width="42px" height="42px" viewBox="0 0 42 42" enable-background="new 0 0 42 42" xml:space="preserve">
<g id="XMLID_4_">
	<path fill="#0368A6" d="M36.815,5.838h-1.796V5.307c0-1.593-1.303-2.896-2.895-2.896h-0.043c-1.593,0-2.896,1.303-2.896,2.896
		v0.531H13.17V5.307c0-1.593-1.303-2.896-2.896-2.896h-0.043c-1.593,0-2.896,1.303-2.896,2.896v0.531H5.542
		c-1.592,0-2.896,1.304-2.896,2.896V36.42c0,1.592,1.303,2.896,2.896,2.896h31.272c1.592,0,2.896-1.304,2.896-2.896V8.735
		C39.71,7.142,38.407,5.838,36.815,5.838z M30.343,5.307c0-0.957,0.778-1.737,1.738-1.737h0.043c0.957,0,1.737,0.78,1.737,1.737
		v5.152c0,0.956-0.78,1.735-1.737,1.735h-0.043c-0.959,0-1.738-0.779-1.738-1.735V5.307z M8.494,5.307
		c0-0.957,0.778-1.737,1.738-1.737h0.043c0.957,0,1.737,0.78,1.737,1.737v5.152c0,0.956-0.781,1.735-1.737,1.735h-0.043
		c-0.959,0-1.738-0.779-1.738-1.735V5.307z M36.815,36.999H5.542c-0.315,0-0.579-0.267-0.579-0.578V16.065h32.431V36.42
		C37.394,36.732,37.129,36.999,36.815,36.999z"/>
</g>
<g>
	<rect x="8.876" y="18.758" fill="#0368A6" width="3.269" height="3.268"/>
	<rect x="16.078" y="18.758" fill="#0368A6" width="3.269" height="3.268"/>
	<rect x="23.279" y="18.758" fill="#0368A6" width="3.269" height="3.268"/>
	<rect x="30.481" y="18.758" fill="#0368A6" width="3.269" height="3.268"/>
</g>
<g>
	<rect x="8.876" y="24.941" fill="#0368A6" width="3.269" height="3.269"/>
	<rect x="16.078" y="24.941" fill="#0368A6" width="3.269" height="3.269"/>
	<rect x="8.876" y="30.924" fill="#0368A6" width="3.269" height="3.268"/>
	<rect x="16.078" y="30.924" fill="#0368A6" width="3.269" height="3.268"/>
	<rect x="23.279" y="24.941" fill="#0368A6" width="3.269" height="3.269"/>
	<rect x="30.481" y="24.941" fill="#0368A6" width="3.269" height="3.269"/>
</g>
</svg>
